<svg width="16" height="16" viewBox="0 0 16 16" fill="none" xmlns="http://www.w3.org/2000/svg">
<path d="M7.63801 5.3802L2.32801 10.9532C2.23936 11.0462 2.18991 11.1697 2.18991 11.2982C2.18991 11.4267 2.23936 11.5502 2.32801 11.6432L2.33401 11.6492C2.37698 11.6944 2.42871 11.7305 2.48604 11.7551C2.54337 11.7797 2.60511 11.7924 2.66751 11.7924C2.7299 11.7924 2.79164 11.7797 2.84897 11.7551C2.90631 11.7305 2.95803 11.6944 3.00101 11.6492L8.00101 6.4012L12.999 11.6492C13.042 11.6944 13.0937 11.7305 13.151 11.7551C13.2084 11.7797 13.2701 11.7924 13.3325 11.7924C13.3949 11.7924 13.4566 11.7797 13.514 11.7551C13.5713 11.7305 13.623 11.6944 13.666 11.6492L13.672 11.6432C13.7607 11.5502 13.8101 11.4267 13.8101 11.2982C13.8101 11.1697 13.7607 11.0462 13.672 10.9532L8.36201 5.3802C8.31531 5.33119 8.25915 5.29217 8.19692 5.26551C8.13469 5.23885 8.0677 5.2251 8.00001 5.2251C7.93231 5.2251 7.86532 5.23885 7.80309 5.26551C7.74087 5.29217 7.6847 5.33119 7.63801 5.3802Z" fill="black"/>
</svg>
