<svg width="24" height="24" viewBox="0 0 24 24" fill="none" xmlns="http://www.w3.org/2000/svg">
<path d="M11.4606 17.5441L18.1168 10.888C16.997 10.4202 15.98 9.73709 15.1235 8.87744C14.2634 8.02071 13.58 7.00339 13.112 5.88325L6.45587 12.5394C5.93659 13.0587 5.6765 13.3188 5.45331 13.605C5.18997 13.9429 4.96396 14.3083 4.77923 14.6948C4.62354 15.0224 4.50744 15.3716 4.27525 16.0682L3.04949 19.7427C2.99308 19.911 2.98471 20.0916 3.02532 20.2644C3.06594 20.4371 3.15393 20.5951 3.27941 20.7206C3.40489 20.8461 3.56288 20.9341 3.73562 20.9747C3.90836 21.0153 4.08901 21.0069 4.25725 20.9505L7.93182 19.7247C8.62929 19.4926 8.97758 19.3765 9.30517 19.2208C9.69336 19.036 10.0566 18.8113 10.395 18.5467C10.6812 18.3235 10.9413 18.0634 11.4606 17.5441ZM19.9635 9.04123C20.6272 8.37756 21 7.47744 21 6.53887C21 5.6003 20.6272 4.70018 19.9635 4.03651C19.2998 3.37284 18.3997 3 17.4611 3C16.5226 3 15.6224 3.37284 14.9588 4.03651L14.1605 4.83478L14.1947 4.93468C14.588 6.06034 15.2317 7.08199 16.0774 7.92257C16.9431 8.79358 18.0006 9.45004 19.1652 9.8395L19.9635 9.04123Z" fill="#7F7F9D"/>
</svg>
